# xmcd
#
# Track frame offsets: 
#        150
#        14595
#        26807
#        42355
#        57785
#        75875
#        92270
#        108660
#        126955
#        143897
#
# Disc length: 2168 seconds
#
# Revision: 3
# Processed by: cddbd v1.5.2PL0 Copyright (c) Steve Scherf et al.
# Submitted via: ExactAudioCopy v1.0b1
#
DISCID=7b08760a
DTITLE=George Fox - Time Of My Life ...
DYEAR=1900
DGENRE=Country
TTITLE0=First Comes Love
TTITLE1=A Matter Of Fact
TTITLE2=How Big A Room
TTITLE3=Time Of My Life
TTITLE4=Mr. Hide
TTITLE5=What's Holding Me
TTITLE6=So Many Tears
TTITLE7=Here's Hoping (There'll Always Be A Cowboy)
TTITLE8=Rodeo Man
TTITLE9=Colt Thunder
EXTD=
EXTT0=
EXTT1=
EXTT2=
EXTT3=
EXTT4=
EXTT5=
EXTT6=
EXTT7=
EXTT8=
EXTT9=
PLAYORDER=
